# xmcd CD database file
#
# Track frame offsets:
#	150
#	21322
#	32031
#	54008
#	71333
#	79902
#	102213
#	111554
#	120624
#	142378
#
# Disc length: 2354 seconds
#
# Revision: 0
# Processed by: cddbd v1.4PL0 Copyright (c) Steve Scherf et al.
# Submitted via: CDex 1.40Beta9
#
DISCID=8a09300a
DTITLE=The Shavers - Shavrolet
DYEAR=1900
DGENRE=Blues
TTITLE0=Zwerven
TTITLE1=Dracula
TTITLE2=Hollands Lied
TTITLE3=Op stap met Johannes
TTITLE4=Shavrolet
TTITLE5=06-9669
TTITLE6=Tongzoenen
TTITLE7=Jeuk
TTITLE8=Halvarine
TTITLE9=Lust and Genot
EXTD=ID3G: 0
EXTT0=
EXTT1=
EXTT2=
EXTT3=
EXTT4=
EXTT5=
EXTT6=
EXTT7=
EXTT8=
EXTT9=
PLAYORDER=
